<svg width="26.000000" height="24.000000" viewBox="0 0 26 24" fill="none" xmlns="http://www.w3.org/2000/svg" xmlns:xlink="http://www.w3.org/1999/xlink">
	<desc>
			Created with Pixso.
	</desc>
	<defs/>
	<path d="M20.95 22.26L20.83 22.26C20.23 22.26 19.71 21.76 19.67 21.12C19.63 20.46 20.11 19.87 20.76 19.83C20.78 19.83 20.81 19.83 20.84 19.83C21.45 19.83 21.97 20.32 22.02 20.94C22.03 21.19 21.99 21.55 21.73 21.84L21.73 21.85L21.72 21.85C21.52 22.09 21.26 22.23 20.95 22.26ZM7.22 22.25C6.56 22.25 6.04 21.71 6.04 21.04C6.04 20.38 6.56 19.84 7.22 19.84C7.87 19.84 8.39 20.38 8.39 21.04C8.39 21.71 7.87 22.25 7.22 22.25Z" fill="#FFFFFF" fill-opacity="1.000000" fill-rule="nonzero"/>
	<path d="M20.87 21.26C20.92 21.25 20.94 21.23 20.96 21.21C20.96 21.2 20.97 21.19 20.98 21.18C21.02 21.14 21.02 21.05 21.02 21.01C21 20.9 20.91 20.83 20.84 20.83C20.83 20.83 20.83 20.83 20.83 20.83C20.75 20.83 20.66 20.94 20.67 21.06C20.68 21.17 20.76 21.26 20.83 21.26L20.87 21.26ZM7.22 21.25C7.31 21.25 7.39 21.16 7.39 21.04C7.39 20.93 7.31 20.84 7.22 20.84C7.12 20.84 7.04 20.93 7.04 21.04C7.04 21.16 7.12 21.25 7.22 21.25ZM20.99 23.26C20.95 23.26 20.88 23.26 20.83 23.26C19.7 23.26 18.75 22.35 18.67 21.19C18.59 19.99 19.49 18.91 20.69 18.83C20.74 18.83 20.79 18.83 20.84 18.83C21.98 18.83 22.94 19.73 23.01 20.88C23.05 21.49 22.87 22.06 22.49 22.5C22.1 22.95 21.57 23.21 20.99 23.26ZM7.22 23.25C6.01 23.25 5.04 22.27 5.04 21.04C5.04 19.82 6.01 18.84 7.22 18.84C8.42 18.84 9.39 19.82 9.39 21.04C9.39 22.27 8.42 23.25 7.22 23.25ZM20.19 16.39L8.13 16.39C7.7 16.39 7.31 16.1 7.2 15.67L3.27 1.24L0.52 1.24C-0.01 1.24 -0.44 0.8 -0.44 0.27C-0.44 -0.27 -0.01 -0.71 0.52 -0.71L3.99 -0.71C4.43 -0.71 4.81 -0.42 4.92 0.01L8.85 14.43L19.55 14.43L23.11 6.13L11.25 6.13C10.72 6.13 10.29 5.69 10.29 5.15C10.29 4.61 10.72 4.17 11.25 4.17L24.58 4.17C24.9 4.17 25.21 4.34 25.39 4.61C25.56 4.89 25.59 5.23 25.47 5.54L21.08 15.8C20.91 16.16 20.58 16.39 20.19 16.39Z" fill="#FFFFFF" fill-opacity="1.000000" fill-rule="nonzero"/>
	<path d="M20.87 21.26C20.92 21.25 20.94 21.23 20.96 21.21C20.96 21.2 20.97 21.19 20.98 21.18C21.02 21.14 21.02 21.05 21.02 21.01C21 20.9 20.91 20.83 20.84 20.83C20.83 20.83 20.83 20.83 20.83 20.83C20.75 20.83 20.66 20.94 20.67 21.06C20.68 21.17 20.76 21.26 20.83 21.26L20.87 21.26ZM7.22 21.25C7.31 21.25 7.39 21.16 7.39 21.04C7.39 20.93 7.31 20.84 7.22 20.84C7.12 20.84 7.04 20.93 7.04 21.04C7.04 21.16 7.12 21.25 7.22 21.25ZM20.99 23.26C20.95 23.26 20.88 23.26 20.83 23.26C19.7 23.26 18.75 22.35 18.67 21.19C18.59 19.99 19.49 18.91 20.69 18.83C20.74 18.83 20.79 18.83 20.84 18.83C21.98 18.83 22.94 19.73 23.01 20.88C23.05 21.49 22.87 22.06 22.49 22.5C22.1 22.95 21.57 23.21 20.99 23.26ZM7.22 23.25C6.01 23.25 5.04 22.27 5.04 21.04C5.04 19.82 6.01 18.84 7.22 18.84C8.42 18.84 9.39 19.82 9.39 21.04C9.39 22.27 8.42 23.25 7.22 23.25ZM20.19 16.39L8.13 16.39C7.7 16.39 7.31 16.1 7.2 15.67L3.27 1.24L0.52 1.24C-0.01 1.24 -0.44 0.8 -0.44 0.27C-0.44 -0.27 -0.01 -0.71 0.52 -0.71L3.99 -0.71C4.43 -0.71 4.81 -0.42 4.92 0.01L8.85 14.43L19.55 14.43L23.11 6.13L11.25 6.13C10.72 6.13 10.29 5.69 10.29 5.15C10.29 4.61 10.72 4.17 11.25 4.17L24.58 4.17C24.9 4.17 25.21 4.34 25.39 4.61C25.56 4.89 25.59 5.23 25.47 5.54L21.08 15.8C20.91 16.16 20.58 16.39 20.19 16.39Z" fill="#FFFFFF" fill-opacity="1.000000" fill-rule="nonzero"/>
</svg>
